<svg xmlns="http://www.w3.org/2000/svg" viewBox="0 0 512 512"><!-- Earth Icon (Simplified) -->
<path fill="#4ECDC4" d="M256 0c141.4 0 256 114.6 256 256S397.4 512 256 512 0 397.4 0 256 114.6 0 256 0zM209.1 98.4c-9.6 0-14.4 7.2-14.4 14.4 0 7.2 4.8 14.4 9.6 19.2l48 48c9.6 9.6 24 9.6 33.6 0l24-24c9.6-9.6 14.4-24 14.4-38.4 0-14.4-9.6-28.8-24-33.6l-33.6-9.6c-14.4-4.8-28.8-4.8-43.2 14.4zm-96 240c0-14.4 7.2-28.8 19.2-38.4l48-38.4c9.6-7.2 24-9.6 33.6-4.8l24 9.6c9.6 4.8 19.2 14.4 19.2 28.8 0 14.4-9.6 28.8-19.2 38.4l-48 48c-9.6 9.6-24 9.6-33.6 0l-24-24c-9.6-9.6-19.2-14.4-19.2-19.2z"/>
</svg>
