<svg xmlns="http://www.w3.org/2000/svg" viewBox="0 0 512 512"><!-- Graduation Cap Icon -->
<path fill="#4ECDC4" d="M496 128v16a8 8 0 0 1-8 8h-24v12c0 6.627-5.373 12-12 12H60c-6.627 0-12-5.373-12-12v-12H24a8 8 0 0 1-8-8v-16a8 8 0 0 1 4.941-7.395l232-88a7.996 7.996 0 0 1 6.118 0l232 88A8 8 0 0 1 496 128zm-24 104v136c0 13.255-10.745 24-24 24s-24-10.745-24-24V254.37c-33.743 28.005-78.506 45.63-128 45.63-104.939 0-192-80.126-192-179.316L246.068 16.53C249.263 15.283 256.096 16 265.932 16.53L480 102.316V232z"/>
</svg>
