<svg xmlns="http://www.w3.org/2000/svg" viewBox="0 0 512 512"><!-- Rocket Icon -->
<path fill="#4ECDC4" d="M48 322C48 410.4 119.6 482 208 482c16.6 0 32.5-2.6 47.6-7.4 20-6.4 26.6-32.1 12.5-47-19.8-21-39.7-36.9-59.5-47.5l-4.2-2.3c-28.7-15.4-53-39.7-68.5-68.5-2.2-4.1-13.3-24.8-17.7-29.5-12.2-12.8-37.4-4-43 14.8-1.5 5.5-2.2 11.2-2.2 17.1-17.5-6.5-35-26.4-53.7-44.5C21.6 302.2 48 322 48 322zm311.6-114c28.7 15.4 53 39.7 68.5 68.5 2.2 4.1 13.3 24.8 17.7 29.5 12.2 12.8 37.4 4 43-14.8 1.5-5.5 2.2-11.2 2.2-17.1 0-88.4-71.6-160-160-160-16.6 0-32.5 2.6-47.6 7.4-20 6.4-26.6 32.1-12.5 47 19.8 21 39.7 36.9 59.5 47.5l4.2 2.3zM256 0C114.6 0 0 114.6 0 256s114.6 256 256 256 256-114.6 256-256S397.4 0 256 0zm0 128c70.7 0 128 57.3 128 128s-57.3 128-128 128-128-57.3-128-128 57.3-128 128-128z"/>
</svg>
